<mxfile host="app.diagrams.net" modified="2021-02-23T11:46:17.196Z" agent="5.0 (Windows NT 10.0; Win64; x64) AppleWebKit/537.36 (KHTML, like Gecko) Chrome/88.0.4324.182 Safari/537.36" etag="IwY0CMFyAsfMzzO5gup2" version="14.4.2" type="github">
  <diagram id="YWuuKNWN5bJG5vIbLnU_" name="Page-1">
    <mxGraphModel dx="2272" dy="762" grid="1" gridSize="10" guides="1" tooltips="1" connect="1" arrows="1" fold="1" page="1" pageScale="1" pageWidth="850" pageHeight="1100" math="0" shadow="0">
      <root>
        <mxCell id="0" />
        <mxCell id="1" parent="0" />
        <mxCell id="ozsfNRa52i15XLv_PByh-25" style="edgeStyle=orthogonalEdgeStyle;rounded=0;orthogonalLoop=1;jettySize=auto;html=1;entryX=0;entryY=0.5;entryDx=0;entryDy=0;" edge="1" parent="1" source="ozsfNRa52i15XLv_PByh-2" target="ozsfNRa52i15XLv_PByh-12">
          <mxGeometry relative="1" as="geometry">
            <mxPoint x="370" y="40" as="targetPoint" />
            <Array as="points" />
          </mxGeometry>
        </mxCell>
        <mxCell id="ozsfNRa52i15XLv_PByh-42" style="edgeStyle=orthogonalEdgeStyle;rounded=0;orthogonalLoop=1;jettySize=auto;html=1;exitX=1;exitY=1;exitDx=0;exitDy=0;entryX=0.5;entryY=0;entryDx=0;entryDy=0;" edge="1" parent="1" source="ozsfNRa52i15XLv_PByh-2" target="ozsfNRa52i15XLv_PByh-51">
          <mxGeometry relative="1" as="geometry">
            <mxPoint x="350" y="140" as="targetPoint" />
            <Array as="points">
              <mxPoint x="270" y="80" />
              <mxPoint x="320" y="80" />
            </Array>
          </mxGeometry>
        </mxCell>
        <mxCell id="ozsfNRa52i15XLv_PByh-2" value="books" style="rounded=1;whiteSpace=wrap;html=1;gradientColor=none;" vertex="1" parent="1">
          <mxGeometry x="150" y="10" width="120" height="60" as="geometry" />
        </mxCell>
        <mxCell id="ozsfNRa52i15XLv_PByh-30" style="edgeStyle=orthogonalEdgeStyle;rounded=0;orthogonalLoop=1;jettySize=auto;html=1;exitX=0.25;exitY=1;exitDx=0;exitDy=0;entryX=0.5;entryY=0;entryDx=0;entryDy=0;" edge="1" parent="1" source="ozsfNRa52i15XLv_PByh-3" target="ozsfNRa52i15XLv_PByh-43">
          <mxGeometry relative="1" as="geometry">
            <mxPoint x="-95" y="90" as="targetPoint" />
          </mxGeometry>
        </mxCell>
        <mxCell id="ozsfNRa52i15XLv_PByh-47" style="edgeStyle=orthogonalEdgeStyle;rounded=0;orthogonalLoop=1;jettySize=auto;html=1;exitX=0.75;exitY=1;exitDx=0;exitDy=0;entryX=0.5;entryY=0;entryDx=0;entryDy=0;" edge="1" parent="1" source="ozsfNRa52i15XLv_PByh-3" target="ozsfNRa52i15XLv_PByh-45">
          <mxGeometry relative="1" as="geometry" />
        </mxCell>
        <mxCell id="ozsfNRa52i15XLv_PByh-3" value="writers" style="rounded=1;whiteSpace=wrap;html=1;gradientColor=none;" vertex="1" parent="1">
          <mxGeometry x="-120" y="10" width="120" height="60" as="geometry" />
        </mxCell>
        <mxCell id="ozsfNRa52i15XLv_PByh-20" style="edgeStyle=orthogonalEdgeStyle;rounded=0;orthogonalLoop=1;jettySize=auto;html=1;exitX=1;exitY=0.5;exitDx=0;exitDy=0;entryX=0;entryY=0.5;entryDx=0;entryDy=0;" edge="1" parent="1" source="ozsfNRa52i15XLv_PByh-8" target="ozsfNRa52i15XLv_PByh-19">
          <mxGeometry relative="1" as="geometry" />
        </mxCell>
        <mxCell id="ozsfNRa52i15XLv_PByh-37" style="edgeStyle=orthogonalEdgeStyle;rounded=0;orthogonalLoop=1;jettySize=auto;html=1;exitX=0.25;exitY=1;exitDx=0;exitDy=0;entryX=0.5;entryY=0;entryDx=0;entryDy=0;" edge="1" parent="1" source="ozsfNRa52i15XLv_PByh-8" target="ozsfNRa52i15XLv_PByh-44">
          <mxGeometry relative="1" as="geometry">
            <mxPoint x="-95" y="260" as="targetPoint" />
          </mxGeometry>
        </mxCell>
        <mxCell id="ozsfNRa52i15XLv_PByh-38" style="edgeStyle=orthogonalEdgeStyle;rounded=0;orthogonalLoop=1;jettySize=auto;html=1;exitX=0.75;exitY=1;exitDx=0;exitDy=0;entryX=0.5;entryY=0;entryDx=0;entryDy=0;" edge="1" parent="1" source="ozsfNRa52i15XLv_PByh-8" target="ozsfNRa52i15XLv_PByh-48">
          <mxGeometry relative="1" as="geometry">
            <mxPoint x="-25" y="260" as="targetPoint" />
          </mxGeometry>
        </mxCell>
        <mxCell id="ozsfNRa52i15XLv_PByh-54" style="edgeStyle=orthogonalEdgeStyle;rounded=0;orthogonalLoop=1;jettySize=auto;html=1;exitX=1;exitY=1;exitDx=0;exitDy=0;entryX=0.575;entryY=-0.05;entryDx=0;entryDy=0;entryPerimeter=0;" edge="1" parent="1" source="ozsfNRa52i15XLv_PByh-8" target="ozsfNRa52i15XLv_PByh-53">
          <mxGeometry relative="1" as="geometry" />
        </mxCell>
        <mxCell id="ozsfNRa52i15XLv_PByh-8" value="user" style="rounded=1;whiteSpace=wrap;html=1;gradientColor=none;" vertex="1" parent="1">
          <mxGeometry x="-120" y="170" width="120" height="60" as="geometry" />
        </mxCell>
        <mxCell id="ozsfNRa52i15XLv_PByh-12" value="category" style="rounded=1;whiteSpace=wrap;html=1;gradientColor=none;" vertex="1" parent="1">
          <mxGeometry x="350" y="10" width="120" height="60" as="geometry" />
        </mxCell>
        <mxCell id="ozsfNRa52i15XLv_PByh-16" value="&lt;span&gt;sub-category&lt;/span&gt;" style="rhombus;whiteSpace=wrap;html=1;gradientColor=none;" vertex="1" parent="1">
          <mxGeometry x="590" width="80" height="80" as="geometry" />
        </mxCell>
        <mxCell id="ozsfNRa52i15XLv_PByh-22" style="edgeStyle=orthogonalEdgeStyle;rounded=0;orthogonalLoop=1;jettySize=auto;html=1;exitX=0.5;exitY=0;exitDx=0;exitDy=0;entryX=0.5;entryY=1;entryDx=0;entryDy=0;" edge="1" parent="1" source="ozsfNRa52i15XLv_PByh-19" target="ozsfNRa52i15XLv_PByh-2">
          <mxGeometry relative="1" as="geometry" />
        </mxCell>
        <mxCell id="ozsfNRa52i15XLv_PByh-19" value="rented" style="rhombus;whiteSpace=wrap;html=1;gradientColor=none;" vertex="1" parent="1">
          <mxGeometry x="170" y="160" width="80" height="80" as="geometry" />
        </mxCell>
        <mxCell id="ozsfNRa52i15XLv_PByh-40" value="" style="edgeStyle=entityRelationEdgeStyle;fontSize=12;html=1;endArrow=ERoneToMany;exitX=1;exitY=0.5;exitDx=0;exitDy=0;entryX=0;entryY=0.5;entryDx=0;entryDy=0;" edge="1" parent="1" source="ozsfNRa52i15XLv_PByh-12" target="ozsfNRa52i15XLv_PByh-16">
          <mxGeometry width="100" height="100" relative="1" as="geometry">
            <mxPoint x="310" y="260" as="sourcePoint" />
            <mxPoint x="410" y="160" as="targetPoint" />
          </mxGeometry>
        </mxCell>
        <mxCell id="ozsfNRa52i15XLv_PByh-41" value="" style="edgeStyle=entityRelationEdgeStyle;fontSize=12;html=1;endArrow=ERoneToMany;startArrow=ERoneToMany;exitX=1;exitY=0.5;exitDx=0;exitDy=0;" edge="1" parent="1" source="ozsfNRa52i15XLv_PByh-3">
          <mxGeometry width="100" height="100" relative="1" as="geometry">
            <mxPoint x="50" y="140" as="sourcePoint" />
            <mxPoint x="150" y="40" as="targetPoint" />
          </mxGeometry>
        </mxCell>
        <mxCell id="ozsfNRa52i15XLv_PByh-43" value="name" style="ellipse;whiteSpace=wrap;html=1;aspect=fixed;gradientColor=none;" vertex="1" parent="1">
          <mxGeometry x="-110" y="100" width="30" height="30" as="geometry" />
        </mxCell>
        <mxCell id="ozsfNRa52i15XLv_PByh-44" value="name" style="ellipse;whiteSpace=wrap;html=1;aspect=fixed;gradientColor=none;" vertex="1" parent="1">
          <mxGeometry x="-110" y="260" width="30" height="30" as="geometry" />
        </mxCell>
        <mxCell id="ozsfNRa52i15XLv_PByh-45" value="last name" style="ellipse;whiteSpace=wrap;html=1;aspect=fixed;gradientColor=none;" vertex="1" parent="1">
          <mxGeometry x="-60" y="85" width="60" height="60" as="geometry" />
        </mxCell>
        <mxCell id="ozsfNRa52i15XLv_PByh-48" value="last name" style="ellipse;whiteSpace=wrap;html=1;aspect=fixed;gradientColor=none;" vertex="1" parent="1">
          <mxGeometry x="-60" y="260" width="60" height="60" as="geometry" />
        </mxCell>
        <mxCell id="ozsfNRa52i15XLv_PByh-50" style="edgeStyle=orthogonalEdgeStyle;rounded=0;orthogonalLoop=1;jettySize=auto;html=1;entryX=0.5;entryY=0;entryDx=0;entryDy=0;" edge="1" parent="1">
          <mxGeometry relative="1" as="geometry">
            <mxPoint x="360" y="120" as="targetPoint" />
            <mxPoint x="360" y="120" as="sourcePoint" />
          </mxGeometry>
        </mxCell>
        <mxCell id="ozsfNRa52i15XLv_PByh-51" value="ISBN" style="ellipse;whiteSpace=wrap;html=1;aspect=fixed;gradientColor=none;" vertex="1" parent="1">
          <mxGeometry x="280" y="100" width="80" height="80" as="geometry" />
        </mxCell>
        <mxCell id="ozsfNRa52i15XLv_PByh-53" value="password" style="rounded=1;whiteSpace=wrap;html=1;gradientColor=none;" vertex="1" parent="1">
          <mxGeometry x="10" y="260" width="110" height="50" as="geometry" />
        </mxCell>
      </root>
    </mxGraphModel>
  </diagram>
</mxfile>
